<svg xmlns="http://www.w3.org/2000/svg" width="25" height="24" viewBox="0 0 25 24" fill="none">
  <path d="M8.70447 20.25C8.70447 20.6642 8.36868 21 7.95447 21C7.54025 21 7.20447 20.6642 7.20447 20.25C7.20447 19.8358 7.54025 19.5 7.95447 19.5C8.36868 19.5 8.70447 19.8358 8.70447 20.25Z" fill="#191C1F" stroke="#191C1F" stroke-width="1.5"/>
  <path d="M17.7045 21.75C18.5329 21.75 19.2045 21.0784 19.2045 20.25C19.2045 19.4216 18.5329 18.75 17.7045 18.75C16.876 18.75 16.2045 19.4216 16.2045 20.25C16.2045 21.0784 16.876 21.75 17.7045 21.75Z" fill="#191C1F"/>
  <path d="M4.42009 6.75H21.2388L18.7638 15.4125C18.6755 15.7269 18.4864 16.0036 18.2256 16.2C17.9648 16.3965 17.6466 16.5019 17.3201 16.5H8.33884C8.0123 16.5019 7.69417 16.3965 7.43333 16.2C7.1725 16.0036 6.9834 15.7269 6.89509 15.4125L3.50134 3.54375C3.4565 3.38696 3.36176 3.24905 3.2315 3.15093C3.10124 3.05282 2.94255 2.99983 2.77947 3H1.20447" stroke="#191C1F" stroke-width="1.5" stroke-linecap="round" stroke-linejoin="round"/>
</svg>