<svg xmlns="http://www.w3.org/2000/svg" width="72" height="72" viewBox="0 0 72 72" fill="none">
  <path fill-rule="evenodd" clip-rule="evenodd" d="M44.6636 46.9783C40.4953 50.0604 34.4324 51.7025 29.2031 51.7025C21.8771 51.7025 15.3089 48.9994 10.307 44.5025C9.92807 44.1489 10.2565 43.6689 10.7365 43.9468C16.1173 47.0794 22.7613 48.9488 29.6326 48.9488C34.2556 48.9488 39.3585 47.9888 44.0573 45.9931C44.7646 45.7152 45.3457 46.4731 44.6636 46.9783Z" fill="#9BC1D7"/>
  <path fill-rule="evenodd" clip-rule="evenodd" d="M46.4064 44.9826C45.8759 44.3006 42.8697 44.6542 41.5308 44.8311C41.1266 44.8816 41.0509 44.5279 41.4298 44.2753C43.8297 42.5827 47.7453 43.088 48.2 43.6437C48.6547 44.1995 48.0737 48.1404 45.8254 50.0098C45.4717 50.2877 45.1433 50.1361 45.2949 49.7572C45.8001 48.4941 46.9369 45.69 46.4064 44.9826Z" fill="#9BC1D7"/>
  <path fill-rule="evenodd" clip-rule="evenodd" d="M41.6066 32.402V30.7599C41.6066 30.5073 41.7835 30.3558 42.0108 30.3558H49.3368C49.5642 30.3558 49.7663 30.5326 49.7663 30.7599V32.1494C49.7663 32.3767 49.5642 32.6799 49.2105 33.1851L45.4212 38.5913C46.8359 38.566 48.3263 38.7681 49.5894 39.4754C49.8673 39.627 49.9431 39.8796 49.9684 40.107V41.8501C49.9684 42.1027 49.7158 42.3806 49.4379 42.229C47.1896 41.0417 44.1834 40.9154 41.7077 42.2543C41.4551 42.3806 41.1772 42.128 41.1772 41.8754V40.2081C41.1772 39.9554 41.1772 39.5007 41.4551 39.0965L45.8507 32.8062H42.0361C41.8087 32.8062 41.6066 32.6294 41.6066 32.402ZM14.9046 42.5827H12.6816C12.4795 42.5574 12.3026 42.4059 12.2774 42.2038V30.7852C12.2774 30.5579 12.4795 30.381 12.7068 30.381H14.7783C15.0057 30.381 15.1572 30.5579 15.1825 30.7599V32.2504H15.233C15.7635 30.8105 16.7993 30.1284 18.1634 30.1284C19.5528 30.1284 20.437 30.8105 21.0433 32.2504C21.5738 30.8105 22.8117 30.1284 24.1253 30.1284C25.06 30.1284 26.0705 30.5073 26.702 31.3915C27.4094 32.3515 27.2578 33.7409 27.2578 34.9788V42.2038C27.2578 42.4311 27.0557 42.608 26.8283 42.608H24.6305C24.4032 42.5827 24.2263 42.4059 24.2263 42.2038V36.1408C24.2263 35.6608 24.2769 34.4482 24.1758 33.9935C23.999 33.2357 23.519 33.0083 22.8622 33.0083C22.3317 33.0083 21.7506 33.362 21.5233 33.943C21.2959 34.524 21.3212 35.484 21.3212 36.1408V42.2038C21.3212 42.4311 21.1191 42.608 20.8917 42.608H18.6687C18.4413 42.5827 18.2645 42.4059 18.2645 42.2038V36.1408C18.2645 34.8777 18.4666 32.983 16.9003 32.983C15.3088 32.983 15.3593 34.8019 15.3593 36.1408V42.2038C15.3341 42.4059 15.1572 42.5827 14.9046 42.5827ZM56.0818 30.1284C59.3911 30.1284 61.1847 32.9578 61.1847 36.5703C61.1847 40.0565 59.2143 42.8353 56.0818 42.8353C52.8483 42.8353 51.0799 40.006 51.0799 36.4692C51.0547 32.9072 52.8483 30.1284 56.0818 30.1284ZM56.0818 32.4778C54.4398 32.4778 54.3387 34.7261 54.3387 36.1156C54.3387 37.505 54.3135 40.4859 56.0565 40.4859C57.7744 40.4859 57.8754 38.086 57.8754 36.6208C57.8754 35.6608 57.8249 34.4988 57.547 33.5893C57.2944 32.7809 56.7891 32.4778 56.0818 32.4778ZM65.454 42.5827H63.231C63.0036 42.5574 62.8268 42.3806 62.8268 42.1785V30.7347C62.852 30.5326 63.0289 30.3558 63.2562 30.3558H65.3277C65.5298 30.3558 65.6814 30.5073 65.7319 30.6842V32.4273H65.7824C66.414 30.861 67.2729 30.1284 68.8139 30.1284C69.7991 30.1284 70.7843 30.4821 71.4159 31.4673C71.9969 32.3767 71.9969 33.9177 71.9969 35.0293V42.229C71.9716 42.4311 71.7948 42.5827 71.5675 42.5827H69.3444C69.1423 42.5574 68.9655 42.4059 68.9402 42.229V36.0145C68.9402 34.7514 69.0918 32.9325 67.5508 32.9325C67.0203 32.9325 66.515 33.2862 66.2624 33.842C65.9593 34.5493 65.9087 35.2314 65.9087 36.0145V42.1785C65.8835 42.4059 65.6814 42.5827 65.454 42.5827ZM35.7711 37.1261C35.7711 37.985 35.7964 38.7176 35.3669 39.5007C35.0132 40.1323 34.4575 40.5112 33.8259 40.5112C32.967 40.5112 32.4618 39.8544 32.4618 38.8944C32.4618 36.9997 34.1543 36.6461 35.7711 36.6461V37.1261ZM38.0194 42.5575C37.8678 42.6838 37.6657 42.709 37.4889 42.608C36.7563 42.0017 36.6047 41.6985 36.2005 41.1175C34.988 42.3553 34.1038 42.7343 32.5375 42.7343C30.6682 42.7343 29.203 41.5722 29.203 39.2733C29.203 37.4545 30.1882 36.2419 31.5776 35.6356C32.7902 35.1051 34.4827 35.004 35.7711 34.8524V34.5746C35.7711 34.0441 35.8216 33.4125 35.4932 32.9578C35.2153 32.5536 34.7101 32.3767 34.2554 32.3767C33.3965 32.3767 32.6386 32.8062 32.4618 33.7156C32.4112 33.9177 32.2849 34.1198 32.0828 34.1198L29.9356 33.8925C29.7587 33.8419 29.5566 33.7156 29.6072 33.4378C30.1124 30.8105 32.4618 30.0273 34.5838 30.0273C35.67 30.0273 37.0847 30.3052 37.9436 31.1389C39.0299 32.1494 38.9289 33.5135 38.9289 34.9788V38.4397C38.9289 39.4754 39.3583 39.9302 39.7625 40.5112C39.9141 40.7133 39.9393 40.9659 39.7625 41.0922C39.2825 41.4712 38.4741 42.1785 38.0194 42.5575ZM6.5934 37.1261C6.5934 37.985 6.61866 38.7176 6.18921 39.5007C5.83554 40.1323 5.27977 40.5112 4.64822 40.5112C3.78931 40.5112 3.28407 39.8544 3.28407 38.8944C3.28407 36.9997 4.97663 36.6461 6.5934 36.6461V37.1261ZM8.81646 42.5575C8.66489 42.6838 8.4628 42.709 8.28596 42.608C7.55336 42.0017 7.40179 41.6985 6.99759 41.1175C5.78501 42.3553 4.90084 42.7343 3.33459 42.7343C1.4652 42.7343 0 41.5722 0 39.2733C0 37.4545 0.985219 36.2419 2.37463 35.6356C3.58721 35.1051 5.27977 35.004 6.56814 34.8524V34.5746C6.56814 34.0441 6.61866 33.4125 6.29025 32.9578C6.01237 32.5536 5.50713 32.3767 5.05241 32.3767C4.1935 32.3767 3.43564 32.8062 3.25881 33.7156C3.20828 33.9177 3.08197 34.1198 2.87987 34.1198L0.732599 33.8925C0.555764 33.8419 0.353671 33.7156 0.404195 33.4378C0.909436 30.8105 3.25881 30.0273 5.38082 30.0273C6.46709 30.0273 7.88177 30.3052 8.74068 31.1389C9.82695 32.1494 9.7259 33.5135 9.7259 34.9788V38.4397C9.7259 39.4754 10.1554 39.9302 10.5595 40.5112C10.7111 40.7133 10.7364 40.9659 10.5595 41.0922C10.0796 41.4712 9.27118 42.1785 8.81646 42.5575Z" fill="#9BC1D7"/>
</svg>