<svg width="20" height="20" viewBox="0 0 20 20" fill="none" xmlns="http://www.w3.org/2000/svg">
<g id="Apple">
<path id="Vector" d="M15.6317 10.534C15.6228 8.90075 16.3618 7.668 17.8577 6.76012C17.0207 5.56297 15.7564 4.90432 14.0869 4.77525C12.5065 4.65064 10.7791 5.69648 10.1469 5.69648C9.47916 5.69648 7.9477 4.81976 6.74568 4.81976C4.26151 4.85981 1.62152 6.80018 1.62152 10.7477C1.62152 11.9137 1.83521 13.1182 2.2626 14.3614C2.83244 15.9947 4.88923 20 7.03505 19.9332C8.15694 19.9065 8.94938 19.1366 10.4096 19.1366C11.8253 19.1366 12.5599 19.9332 13.8109 19.9332C15.9745 19.9021 17.8354 16.2617 18.3785 14.6239C15.4759 13.2577 15.6317 10.6186 15.6317 10.534ZM13.1119 3.22652C14.3273 1.7846 14.216 0.47174 14.1804 0C13.1075 0.0623053 11.8654 0.729862 11.1575 1.55318C10.3784 2.43436 9.9199 3.5247 10.0178 4.753C11.1798 4.84201 12.2393 4.24566 13.1119 3.22652Z" fill="black"/>
</g>
</svg>
