<svg width="32" height="33" viewBox="0 0 32 33" fill="none" xmlns="http://www.w3.org/2000/svg">
<g id="Apple---Negative 1" clip-path="url(#clip0_2736_13879)">
<g id="Group">
<g id="Group_2">
<path id="Vector" d="M29.056 25.438C28.5893 26.5249 28.013 27.5614 27.336 28.5313C26.4306 29.8213 25.69 30.714 25.1193 31.21C24.2346 32.0233 23.286 32.4407 22.2706 32.464C21.542 32.464 20.6633 32.2567 19.64 31.836C18.6133 31.4173 17.67 31.2093 16.8073 31.2093C15.9026 31.2093 14.9326 31.4173 13.8946 31.836C12.8553 32.2567 12.018 32.476 11.378 32.4973C10.4046 32.5393 9.43396 32.1107 8.46463 31.21C7.84663 30.67 7.07396 29.746 6.14729 28.4367C5.15329 27.038 4.33596 25.4167 3.69596 23.5673C3.01063 21.5707 2.66663 19.6367 2.66663 17.7647C2.66663 15.62 3.12996 13.7707 4.05796 12.2207C4.78796 10.9753 5.75796 9.994 6.97263 9.27267C8.16428 8.55956 9.52398 8.17581 10.9126 8.16067C11.686 8.16067 12.7 8.4 13.9606 8.87C15.2173 9.34133 16.024 9.58067 16.378 9.58067C16.642 9.58067 17.5386 9.30067 19.058 8.74333C20.4953 8.226 21.708 8.012 22.7013 8.09667C25.394 8.314 27.4166 9.37533 28.7613 11.2873C26.354 12.746 25.1626 14.7893 25.1866 17.4107C25.208 19.4527 25.9486 21.152 27.4046 22.5007C28.0646 23.1273 28.8013 23.6113 29.6206 23.9547C29.4488 24.4552 29.2605 24.9499 29.056 25.438ZM22.8813 1.14067C22.8813 2.74067 22.2966 4.23533 21.1313 5.618C19.7246 7.26267 18.024 8.21267 16.1793 8.06267C16.1545 7.86139 16.142 7.65879 16.142 7.456C16.142 5.92 16.8106 4.276 17.9986 2.93133C18.592 2.25067 19.3453 1.68467 20.26 1.23333C21.1733 0.788667 22.036 0.542667 22.848 0.5C22.8713 0.714 22.8813 0.928 22.8813 1.14V1.14067Z" fill="white"/>
</g>
</g>
</g>
<defs>
<clipPath id="clip0_2736_13879">
<rect width="32" height="32" fill="white" transform="translate(0 0.5)"/>
</clipPath>
</defs>
</svg>
