<svg width="24" height="24" viewBox="0 0 24 24" fill="none" xmlns="http://www.w3.org/2000/svg">
<path d="M7.4812 9.34688H2.9812V4.84688" stroke="#5F6C72" stroke-width="1.5" stroke-linecap="round" stroke-linejoin="round"/>
<path d="M17.8312 6.16874C17.0658 5.40226 16.1569 4.79418 15.1563 4.3793C14.1557 3.96442 13.0831 3.75087 12 3.75087C10.9168 3.75087 9.84421 3.96442 8.84362 4.3793C7.84304 4.79418 6.93407 5.40226 6.1687 6.16874L2.9812 9.34687" stroke="#5F6C72" stroke-width="1.5" stroke-linecap="round" stroke-linejoin="round"/>
<path d="M16.5188 14.6531H21.0188V19.1531" stroke="#5F6C72" stroke-width="1.5" stroke-linecap="round" stroke-linejoin="round"/>
<path d="M6.1687 17.8313C6.93407 18.5977 7.84304 19.2058 8.84362 19.6207C9.84421 20.0356 10.9168 20.2491 12 20.2491C13.0831 20.2491 14.1557 20.0356 15.1563 19.6207C16.1569 19.2058 17.0658 18.5977 17.8312 17.8313L21.0187 14.6531" stroke="#5F6C72" stroke-width="1.5" stroke-linecap="round" stroke-linejoin="round"/>
</svg>
