<svg xmlns="http://www.w3.org/2000/svg" width="32" height="32" viewBox="0 0 32 32" fill="none">
  <path opacity="0.2" d="M25 19.1128L20.4 23.7128C20.2746 23.83 20.1227 23.9151 19.9573 23.9608C19.7918 24.0066 19.6178 24.0115 19.45 23.9753L12.2 22.1628C12.0676 22.1259 11.9442 22.062 11.8375 21.9753L5 16.6378L9.075 8.97527L15.4875 7.10027C15.7154 7.03493 15.959 7.05265 16.175 7.15027L20.5 9.11277H17.9125C17.7826 9.11231 17.654 9.13747 17.5339 9.18681C17.4138 9.23614 17.3045 9.30868 17.2125 9.40027L12.3125 14.2878C12.2125 14.3905 12.1354 14.5133 12.0863 14.648C12.0373 14.7827 12.0174 14.9264 12.0281 15.0694C12.0387 15.2123 12.0796 15.3514 12.148 15.4775C12.2164 15.6035 12.3109 15.7135 12.425 15.8003L13.1 16.3128C13.7932 16.8301 14.635 17.1097 15.5 17.1097C16.365 17.1097 17.2068 16.8301 17.9 16.3128L19.5 15.1128L25 19.1128Z" fill="#FDC199"/>
  <path d="M30.0875 15.2251L27 16.7626L23 9.11259L26.125 7.55009C26.3572 7.43171 26.6269 7.40996 26.8751 7.48957C27.1233 7.56919 27.33 7.74371 27.45 7.97509L30.525 13.8626C30.5874 13.9804 30.6255 14.1096 30.6372 14.2424C30.6489 14.3752 30.634 14.509 30.5932 14.636C30.5525 14.7629 30.4867 14.8805 30.3999 14.9816C30.313 15.0828 30.2068 15.1656 30.0875 15.2251V15.2251Z" stroke="#FDC199" stroke-width="2" stroke-linecap="round" stroke-linejoin="round"/>
  <path d="M4.99979 16.6375L1.91229 15.0875C1.79341 15.0292 1.68746 14.9477 1.60073 14.8476C1.51401 14.7476 1.44829 14.6311 1.40747 14.5052C1.36666 14.3793 1.35159 14.2464 1.36315 14.1145C1.37471 13.9826 1.41268 13.8544 1.47479 13.7375L4.54979 7.84999C4.67008 7.61878 4.87588 7.44367 5.12337 7.36195C5.37086 7.28023 5.64047 7.29837 5.87479 7.41249L8.99979 8.97499L4.99979 16.6375Z" stroke="#FDC199" stroke-width="2" stroke-linecap="round" stroke-linejoin="round"/>
  <path d="M27 16.7627L25 19.1127L20.4 23.7127C20.2746 23.8299 20.1227 23.915 19.9573 23.9608C19.7918 24.0065 19.6178 24.0114 19.45 23.9752L12.2 22.1627C12.0676 22.1258 11.9442 22.062 11.8375 21.9752L5 16.6377" stroke="#FDC199" stroke-width="2" stroke-linecap="round" stroke-linejoin="round"/>
  <path d="M25.0001 19.1123L19.5001 15.1123L17.9001 16.3123C17.2069 16.8297 16.3651 17.1092 15.5001 17.1092C14.6351 17.1092 13.7933 16.8297 13.1001 16.3123L12.4251 15.7998C12.311 15.713 12.2166 15.603 12.1481 15.477C12.0797 15.351 12.0388 15.2119 12.0282 15.0689C12.0175 14.9259 12.0374 14.7823 12.0864 14.6476C12.1355 14.5128 12.2126 14.39 12.3126 14.2873L17.2126 9.39981C17.3047 9.30822 17.4139 9.23568 17.534 9.18635C17.6541 9.13701 17.7828 9.11186 17.9126 9.11231H23.0001" stroke="#FDC199" stroke-width="2" stroke-linecap="round" stroke-linejoin="round"/>
  <path d="M9.0752 8.97527L15.4877 7.10027C15.7155 7.03493 15.9592 7.05265 16.1752 7.15027L20.5002 9.11277" stroke="#FDC199" stroke-width="2" stroke-linecap="round" stroke-linejoin="round"/>
  <path d="M14 26.6125L10.2375 25.6625C10.0842 25.6279 9.94221 25.5547 9.825 25.45L7 23" stroke="#FDC199" stroke-width="2" stroke-linecap="round" stroke-linejoin="round"/>
</svg>