<svg xmlns="http://www.w3.org/2000/svg" width="72" height="72" viewBox="0 0 72 72" fill="none">
  <g clip-path="url(#clip0_2707_13950)">
    <path d="M8.8671 24.2632H9.50737C11.7302 24.3115 13.9168 25.2046 15.4872 26.7856C14.9074 27.377 14.3154 27.9442 13.7476 28.5356C12.8658 27.739 11.8027 27.1235 10.6429 26.9063C8.9275 26.5442 7.07918 26.8701 5.6416 27.8477C4.07113 28.8735 3.00804 30.6115 2.77851 32.4701C2.52482 34.3046 3.04428 36.2356 4.24025 37.6597C5.38791 39.0477 7.13958 39.9166 8.95166 39.977C10.6429 40.0735 12.4067 39.5545 13.6389 38.3718C14.6054 37.539 15.0523 36.2718 15.1973 35.0408C13.1919 35.0408 11.1866 35.0528 9.1812 35.0408V32.5546H17.6255C18.0604 35.2218 17.4322 38.227 15.4027 40.1339C14.0497 41.4856 12.1772 42.2821 10.2684 42.439C8.42012 42.6201 6.5114 42.2701 4.86844 41.377C2.89932 40.327 1.32884 38.5528 0.55569 36.4649C-0.169142 34.5459 -0.181223 32.3735 0.495288 30.4425C1.1114 28.6804 2.29529 27.1235 3.81744 26.0373C5.27918 24.9632 7.05502 24.3718 8.8671 24.2632Z" fill="#9BC1D7"/>
    <path d="M57.3101 24.8906H59.8953V42.1251C59.0376 42.1251 58.1678 42.1371 57.3101 42.113C57.3221 36.3803 57.3101 30.6354 57.3101 24.8906Z" fill="#9BC1D7"/>
    <path d="M23.3758 30.8649C24.9705 30.5631 26.698 30.9011 28.0148 31.8545C29.2107 32.6994 30.0443 34.0269 30.298 35.4752C30.6242 37.1528 30.2134 38.9873 29.1262 40.3149C27.9544 41.7993 26.0335 42.5959 24.1611 42.4752C22.4456 42.3786 20.7785 41.5218 19.7637 40.1218C18.6161 38.5769 18.3382 36.4528 18.9664 34.6425C19.5946 32.6994 21.3705 31.2149 23.3758 30.8649ZM23.7382 33.158C23.0859 33.3269 22.4819 33.7011 22.047 34.2321C20.8752 35.6321 20.9476 37.9131 22.2403 39.2166C22.9772 39.9649 24.0886 40.3149 25.1154 40.1097C26.0698 39.9407 26.9033 39.3011 27.3624 38.4562C28.1597 37.02 27.9302 35.0407 26.7101 33.9183C25.9248 33.1942 24.7772 32.8925 23.7382 33.158Z" fill="#9BC1D7"/>
    <path d="M36.1812 30.8648C38.0053 30.5148 39.9986 31.0217 41.3637 32.301C43.5865 34.2924 43.8282 38.0217 41.9315 40.3148C40.7839 41.763 38.9235 42.5596 37.0872 42.4751C35.3355 42.4268 33.608 41.5579 32.5691 40.1217C31.3973 38.5406 31.1436 36.3682 31.808 34.5217C32.4724 32.6389 34.212 31.2027 36.1812 30.8648ZM36.5436 33.1579C35.8912 33.3268 35.2872 33.701 34.8523 34.22C33.6926 35.5958 33.7409 37.8406 34.9852 39.1561C35.7221 39.9406 36.8698 40.3268 37.9328 40.1096C38.8751 39.9286 39.7208 39.301 40.1798 38.4562C40.9651 37.0079 40.7355 35.0286 39.5033 33.9062C38.7181 33.182 37.5704 32.8924 36.5436 33.1579Z" fill="#9BC1D7"/>
    <path d="M47.0416 31.5647C48.4309 30.6957 50.2792 30.4543 51.7772 31.2026C52.2483 31.4078 52.6349 31.7578 53.0094 32.1078C53.0215 31.7819 53.0094 31.444 53.0215 31.1061C53.8309 31.1181 54.6403 31.1061 55.4617 31.1181V41.7629C55.4497 43.3681 55.0389 45.0698 53.8792 46.2405C52.6107 47.5319 50.6658 47.9302 48.9141 47.6646C47.0416 47.3871 45.4107 46.0233 44.6859 44.2974C45.4107 43.9474 46.1718 43.6698 46.9208 43.344C47.3436 44.3336 48.2013 45.1784 49.2765 45.3715C50.3517 45.5647 51.596 45.2991 52.2966 44.406C53.0456 43.4888 53.0456 42.2336 53.0094 41.1112C52.4537 41.6543 51.8134 42.1371 51.0403 42.3181C49.3611 42.7888 47.5128 42.2095 46.2201 41.075C44.9154 39.9405 44.1423 38.1905 44.2148 36.4526C44.251 34.4854 45.3624 32.5905 47.0416 31.5647ZM49.5423 33.1095C48.8054 33.2302 48.1168 33.6405 47.6456 34.2078C46.5101 35.5595 46.5101 37.7198 47.6577 39.0474C48.3101 39.8319 49.3611 40.2664 50.3758 40.1578C51.3302 40.0612 52.2121 39.4578 52.6832 38.625C53.4805 37.2129 53.3477 35.294 52.2725 34.0629C51.6081 33.3026 50.545 32.9285 49.5423 33.1095Z" fill="#9BC1D7"/>
    <path d="M63 32.1804C64.4497 30.8287 66.6846 30.3701 68.545 31.0821C70.3087 31.7459 71.4322 33.4235 72 35.1494C69.3785 36.2356 66.7691 37.3097 64.1477 38.3959C64.5101 39.0838 65.0658 39.7114 65.8148 39.9649C66.8658 40.339 68.1222 40.2062 69.004 39.5062C69.3544 39.2407 69.6322 38.8907 69.898 38.5528C70.5624 38.9993 71.2269 39.4338 71.8913 39.8804C70.949 41.2924 69.3665 42.2821 67.6631 42.439C65.7785 42.6683 63.7732 41.9442 62.553 40.4718C60.5476 38.1545 60.7409 34.2683 63 32.1804ZM64.2926 34.4132C63.8819 35.0045 63.7128 35.7287 63.7248 36.4407C65.4765 35.7166 67.2282 34.9925 68.9799 34.2563C68.6899 33.5804 67.9893 33.17 67.2765 33.0614C66.1289 32.8563 64.9329 33.4718 64.2926 34.4132Z" fill="#9BC1D7"/>
  </g>
  <defs>
    <clipPath id="clip0_2707_13950">
      <rect width="72" height="72" fill="#9BC1D7"/>
    </clipPath>
  </defs>
</svg>