<svg xmlns="http://www.w3.org/2000/svg" width="32" height="32" viewBox="0 0 32 32" fill="none">
<path opacity="0.2" d="M10 27H6C5.73478 27 5.48043 26.8946 5.29289 26.7071C5.10536 26.5196 5 26.2652 5 26V6C5 5.73478 5.10536 5.48043 5.29289 5.29289C5.48043 5.10536 5.73478 5 6 5H10V27Z" fill="#2DB324"/>
<path d="M14 14H22" stroke="#2DB324" stroke-width="2" stroke-linecap="round" stroke-linejoin="round"/>
<path d="M14 18H22" stroke="#2DB324" stroke-width="2" stroke-linecap="round" stroke-linejoin="round"/>
<path d="M26 5H6C5.44772 5 5 5.44772 5 6V26C5 26.5523 5.44772 27 6 27H26C26.5523 27 27 26.5523 27 26V6C27 5.44772 26.5523 5 26 5Z" stroke="#2DB324" stroke-width="2" stroke-linecap="round" stroke-linejoin="round"/>
<path d="M10 5V27" stroke="#2DB324" stroke-width="2" stroke-linecap="round" stroke-linejoin="round"/>
</svg>