<svg width="40" height="40" viewBox="0 0 40 40" fill="none" xmlns="http://www.w3.org/2000/svg">
<g id="Duotone/Headphones">
<path id="Vector" d="M35.2344 21.25H30.2344C29.5713 21.25 28.9354 21.5134 28.4666 21.9822C27.9978 22.451 27.7344 23.0869 27.7344 23.75V30C27.7344 30.663 27.9978 31.2989 28.4666 31.7677C28.9354 32.2366 29.5713 32.5 30.2344 32.5H32.7344C33.3974 32.5 34.0333 32.2366 34.5021 31.7677C34.971 31.2989 35.2344 30.663 35.2344 30V21.25ZM35.2344 21.25C35.2344 19.2696 34.8424 17.3088 34.0807 15.4807C33.3191 13.6526 32.203 11.9935 30.7969 10.5989C29.3907 9.20441 27.7224 8.10213 25.888 7.3557C24.0537 6.60927 22.0897 6.23347 20.1094 6.24997C18.1304 6.23554 16.1681 6.61288 14.3355 7.36023C12.503 8.10759 10.8365 9.21019 9.432 10.6045C8.02751 11.9988 6.91283 13.6573 6.15218 15.4843C5.39153 17.3114 4.99995 19.2709 5 21.25V30C5 30.663 5.26339 31.2989 5.73223 31.7677C6.20107 32.2366 6.83696 32.5 7.5 32.5H10C10.663 32.5 11.2989 32.2366 11.7678 31.7677C12.2366 31.2989 12.5 30.663 12.5 30V23.75C12.5 23.0869 12.2366 22.451 11.7678 21.9822C11.2989 21.5134 10.663 21.25 10 21.25H5" stroke="#191C1F" stroke-width="1.5" stroke-linecap="round" stroke-linejoin="round"/>
</g>
</svg>
