<svg width="32" height="32" viewBox="0 0 32 32" fill="none" xmlns="http://www.w3.org/2000/svg">
<g id="Heart">
<path id="Vector" d="M16 27C16 27 3.5 20 3.5 11.5C3.5 9.99735 4.02062 8.54112 4.97328 7.37907C5.92593 6.21701 7.25178 5.42091 8.72525 5.12622C10.1987 4.83153 11.7288 5.05645 13.0551 5.76271C14.3814 6.46897 15.4221 7.61294 16 9C16.5779 7.61294 17.6186 6.46897 18.9449 5.76271C20.2712 5.05645 21.8013 4.83153 23.2748 5.12622C24.7482 5.42091 26.0741 6.21701 27.0267 7.37907C27.9794 8.54112 28.5 9.99735 28.5 11.5C28.5 20 16 27 16 27Z" stroke="white" stroke-width="2" stroke-linecap="round" stroke-linejoin="round"/>
</g>
</svg>
