<svg xmlns="http://www.w3.org/2000/svg" width="25" height="24" viewBox="0 0 25 24" fill="none">
  <path d="M12.4545 20.25C12.4545 20.25 3.07947 15 3.07947 8.62501C3.07947 7.49803 3.46993 6.40585 4.18442 5.53431C4.89892 4.66277 5.89331 4.0657 6.9984 3.84468C8.1035 3.62366 9.25104 3.79235 10.2458 4.32204C11.2405 4.85174 12.021 5.70972 12.4545 6.75001C12.8879 5.70972 13.6684 4.85174 14.6632 4.32204C15.6579 3.79235 16.8054 3.62366 17.9105 3.84468C19.0156 4.0657 20.01 4.66277 20.7245 5.53431C21.439 6.40585 21.8295 7.49803 21.8295 8.62501C21.8295 15 12.4545 20.25 12.4545 20.25Z" stroke="black" stroke-width="1.5" stroke-linecap="round" stroke-linejoin="round"/>
</svg>