<svg xmlns="http://www.w3.org/2000/svg" width="32" height="32" viewBox="0 0 32 32" fill="none">
  <path opacity="0.2" d="M22 18H2V23C2 23.2652 2.10536 23.5196 2.29289 23.7071C2.48043 23.8946 2.73478 24 3 24H5.5C5.5 23.2044 5.81607 22.4413 6.37868 21.8787C6.94129 21.3161 7.70435 21 8.5 21C9.29565 21 10.0587 21.3161 10.6213 21.8787C11.1839 22.4413 11.5 23.2044 11.5 24H20.5C20.4997 23.4731 20.6381 22.9553 20.9014 22.4989C21.1648 22.0425 21.5437 21.6635 22 21.4V18Z" fill="#FDC199"/>
  <path opacity="0.2" d="M26.5 24C26.5003 23.4732 26.362 22.9557 26.0988 22.4993C25.8356 22.043 25.4569 21.664 25.0008 21.4005C24.5447 21.1369 24.0273 20.9982 23.5005 20.9981C22.9737 20.998 22.4562 21.1366 22 21.4V15H30V23C30 23.2652 29.8946 23.5196 29.7071 23.7071C29.5196 23.8946 29.2652 24 29 24H26.5Z" fill="#FDC199"/>
  <path d="M22 10H27.325C27.5242 9.99872 27.7192 10.0577 27.8843 10.1693C28.0494 10.2808 28.1769 10.4397 28.25 10.625L30 15" stroke="#FDC199" stroke-width="2" stroke-linecap="round" stroke-linejoin="round"/>
  <path d="M2 18H22" stroke="#FDC199" stroke-width="2" stroke-linecap="round" stroke-linejoin="round"/>
  <path d="M23.5 27C25.1569 27 26.5 25.6569 26.5 24C26.5 22.3431 25.1569 21 23.5 21C21.8431 21 20.5 22.3431 20.5 24C20.5 25.6569 21.8431 27 23.5 27Z" stroke="#FDC199" stroke-width="2" stroke-miterlimit="10"/>
  <path d="M8.5 27C10.1569 27 11.5 25.6569 11.5 24C11.5 22.3431 10.1569 21 8.5 21C6.84315 21 5.5 22.3431 5.5 24C5.5 25.6569 6.84315 27 8.5 27Z" stroke="#FDC199" stroke-width="2" stroke-miterlimit="10"/>
  <path d="M20.5 24H11.5" stroke="#FDC199" stroke-width="2" stroke-linecap="round" stroke-linejoin="round"/>
  <path d="M5.5 24H3C2.73478 24 2.48043 23.8946 2.29289 23.7071C2.10536 23.5196 2 23.2652 2 23V9C2 8.73478 2.10536 8.48043 2.29289 8.29289C2.48043 8.10536 2.73478 8 3 8H22V21.4" stroke="#FDC199" stroke-width="2" stroke-linecap="round" stroke-linejoin="round"/>
  <path d="M22 15H30V23C30 23.2652 29.8946 23.5196 29.7071 23.7071C29.5196 23.8946 29.2652 24 29 24H26.5" stroke="#FDC199" stroke-width="2" stroke-linecap="round" stroke-linejoin="round"/>
</svg>