<svg xmlns="http://www.w3.org/2000/svg" width="72" height="72" viewBox="0 0 72 72" fill="none">
  <path d="M7.33729 34.281C7.33729 35.9205 6.54292 37.0309 4.53116 37.0309H3.89548V31.8095C4.12147 31.7967 4.33252 31.7967 4.53116 31.7967C6.43604 31.7966 7.33729 32.6952 7.33729 34.281ZM5.27228 39.3043C8.87188 39.3043 11.1478 37.4533 11.1478 34.2287C11.1476 30.6856 8.71283 29.417 4.74293 29.417C3.20762 29.417 1.35492 29.5224 0.0319214 29.681V42.3187H3.89566V39.3043H5.27228ZM57.0403 34.281C57.0403 35.9205 56.247 37.0309 54.2347 37.0309H53.6012V31.8095C53.8252 31.7967 54.0366 31.7967 54.2347 31.7967C56.1398 31.7966 57.0403 32.6952 57.0403 34.281ZM54.9776 39.3043C58.5744 39.3043 60.8515 37.4533 60.8515 34.2287C60.8515 30.6856 58.4171 29.417 54.4469 29.417C52.9119 29.417 51.0581 29.5224 49.735 29.681V42.3187H53.6007V39.3043H54.9776ZM65.8794 32.9062C65.8794 32.2191 66.5683 31.9014 67.6788 31.9014C68.8968 31.9014 70.221 32.166 71.1201 32.5375L70.8029 29.7871C69.7966 29.5756 68.8968 29.417 67.2564 29.417C64.133 29.417 62.0164 30.6468 62.0164 33.2245C62.0164 37.6648 68.0516 36.7667 68.0516 38.8287C68.0516 39.6211 67.4685 40.0438 66.0386 40.0438C64.7701 40.0438 62.8102 39.6211 61.6459 39.0398L62.0705 41.9488C63.2339 42.3717 64.822 42.5825 66.0928 42.5825C69.3207 42.5825 71.9679 41.5247 71.9679 38.3518C71.9679 34.1233 65.8794 34.9157 65.8794 32.9062ZM46.8248 29.681H42.9611V42.3187H46.8248V29.681ZM31.1563 29.681H27.2922V42.3187H31.1563V29.681ZM37.8787 39.7799V29.681H34.0146V42.3187H41.0024L41.5841 39.7799H37.8787ZM24.4341 29.681H20.57V34.7041H16.547V29.681H12.6822V42.3187H16.5468V37.3478H20.5698V42.3187H24.4339L24.4341 29.681Z" fill="#9BC1D7"/>
</svg>