<svg xmlns="http://www.w3.org/2000/svg" width="28" height="28" viewBox="0 0 28 28" fill="none">
<path d="M17.4343 4.375C18.9185 4.77332 20.2718 5.55499 21.3584 6.64159C22.445 7.72818 23.2266 9.08147 23.625 10.5656" stroke="#191C1F" stroke-width="1.5" stroke-linecap="round" stroke-linejoin="round"/>
<path d="M16.5266 7.75468C17.4192 7.99175 18.2333 8.46057 18.8864 9.11364C19.5395 9.7667 20.0083 10.5808 20.2454 11.4734" stroke="#191C1F" stroke-width="1.5" stroke-linecap="round" stroke-linejoin="round"/>
<path d="M10.1172 13.65C11.0176 15.5094 12.5211 17.0091 14.3828 17.9047C14.5201 17.9697 14.672 17.9979 14.8235 17.9864C14.975 17.9748 15.1209 17.9241 15.2469 17.8391L17.9812 16.0125C18.1021 15.9306 18.2417 15.8806 18.387 15.8672C18.5324 15.8538 18.6788 15.8775 18.8125 15.9359L23.9312 18.1344C24.1062 18.2072 24.2524 18.3355 24.3472 18.4995C24.4421 18.6636 24.4804 18.8542 24.4562 19.0422C24.294 20.3085 23.6759 21.4722 22.7177 22.3158C21.7594 23.1593 20.5266 23.6247 19.25 23.625C15.3049 23.625 11.5214 22.0578 8.73179 19.2682C5.94218 16.4786 4.375 12.6951 4.375 8.75001C4.37529 7.47338 4.84073 6.24059 5.68425 5.28233C6.52776 4.32407 7.69153 3.70599 8.95781 3.54376C9.14576 3.51961 9.33643 3.55792 9.50047 3.65279C9.66451 3.74765 9.79281 3.89381 9.86562 4.06876L12.0641 9.19844C12.1212 9.33007 12.1451 9.47374 12.1337 9.6168C12.1223 9.75985 12.0758 9.89789 11.9984 10.0188L10.1719 12.7969C10.0906 12.9225 10.0428 13.0669 10.0333 13.2163C10.0237 13.3657 10.0526 13.515 10.1172 13.65V13.65Z" stroke="#191C1F" stroke-width="1.5" stroke-linecap="round" stroke-linejoin="round"/>
</svg>