<svg width="16" height="16" viewBox="0 0 16 16" fill="none" xmlns="http://www.w3.org/2000/svg">
<g id="Pinterest" clip-path="url(#clip0_2507_3530)">
<path id="Vector" d="M7.02418 0.0531119C4.36532 0.349929 1.71584 2.50107 1.60648 5.57391C1.53775 7.4501 2.07046 8.85764 3.85605 9.25288C4.63089 7.88596 3.60609 7.58445 3.44675 6.59558C2.79219 2.54325 8.12084 -0.220272 10.9094 2.60886C12.8387 4.56785 11.5686 10.5948 8.45671 9.96836C5.47604 9.37004 9.9158 4.57254 7.53658 3.63054C5.60258 2.86506 4.57466 5.97227 5.49167 7.51572C4.95427 10.1699 3.79668 12.671 4.26534 16C5.78536 14.8971 6.29776 12.785 6.71799 10.5823C7.4819 11.0463 7.88964 11.529 8.86445 11.604C12.4591 11.8821 14.4665 8.01562 13.976 4.44913C13.5401 1.28725 10.3845 -0.321815 7.02418 0.0531119Z" fill="white"/>
</g>
<defs>
<clipPath id="clip0_2507_3530">
<rect width="16" height="16" fill="white"/>
</clipPath>
</defs>
</svg>
