<svg width="16" height="16" viewBox="0 0 16 16" fill="none" xmlns="http://www.w3.org/2000/svg">
<g clip-path="url(#clip0_2507_3532)">
<path d="M8 16C12.4183 16 16 12.4183 16 8C16 3.58172 12.4183 0 8 0C3.58172 0 0 3.58172 0 8C0 12.4183 3.58172 16 8 16Z" fill="white"/>
<path d="M13.3361 8.00005C13.3377 8.10965 13.3241 8.21905 13.2953 8.32485C13.2665 8.43066 13.2229 8.53206 13.1657 8.62566C13.1087 8.71926 13.0387 8.80446 12.9579 8.87866C12.8771 8.95286 12.7863 9.01526 12.6881 9.06406C12.6903 9.09326 12.6921 9.12266 12.6931 9.15206C12.6955 9.21071 12.6955 9.26942 12.6931 9.32806C12.6921 9.35746 12.6903 9.38686 12.6881 9.41607C12.6881 11.2081 10.6001 12.6641 8.02404 12.6641C5.44802 12.6641 3.36 11.2081 3.36 9.41607C3.3578 9.38686 3.356 9.35746 3.355 9.32806C3.3526 9.26942 3.3526 9.21071 3.355 9.15206C3.356 9.12266 3.3578 9.09326 3.36 9.06406C3.20615 8.99334 3.06951 8.89004 2.95952 8.7613C2.84953 8.63256 2.76883 8.48146 2.723 8.31845C2.67724 8.15538 2.6675 7.9843 2.69443 7.81708C2.72137 7.64986 2.78435 7.4905 2.879 7.35004C2.97357 7.20961 3.09756 7.09143 3.24237 7.00371C3.38718 6.91598 3.54934 6.86082 3.71761 6.84204C3.88589 6.82318 4.05627 6.84113 4.21692 6.89466C4.37758 6.94819 4.52467 7.03601 4.64801 7.15204C4.87698 6.99685 5.11688 6.85842 5.36582 6.73784C5.61482 6.61744 5.87223 6.51504 6.13603 6.43183C6.39983 6.34863 6.66943 6.28483 6.94244 6.24063C7.21544 6.19643 7.49144 6.17223 7.76804 6.16803L8.36005 3.392C8.36665 3.3598 8.37965 3.3294 8.39825 3.3022C8.41665 3.2752 8.44045 3.252 8.46785 3.2342C8.49545 3.2164 8.52625 3.2042 8.55865 3.1982C8.59085 3.1924 8.62405 3.193 8.65605 3.2L10.6161 3.59201C10.8139 3.2522 11.2291 3.1066 11.5957 3.2482C11.9623 3.3898 12.1719 3.77681 12.0899 4.16121C12.0081 4.54562 11.6589 4.81362 11.2665 4.79342C10.8739 4.77322 10.5541 4.47081 10.5121 4.08001L8.80005 3.72001L8.28005 6.21603C8.55325 6.22183 8.82585 6.24743 9.09545 6.29243C9.63535 6.38243 10.1594 6.54989 10.6515 6.78964C10.8972 6.90924 11.134 7.0464 11.3601 7.20004C11.5226 7.044 11.7268 6.93835 11.9481 6.89584C12.1693 6.85318 12.3982 6.87548 12.6071 6.96004C12.816 7.04456 12.9959 7.18772 13.1253 7.37224C13.2547 7.55678 13.3279 7.77482 13.3361 8.00005ZM5.39682 9.10626C5.43722 9.20326 5.49602 9.29146 5.57042 9.36566C5.64462 9.44007 5.73282 9.49887 5.82983 9.53927C5.92692 9.57942 6.03096 9.60008 6.13603 9.60007C6.45963 9.60007 6.75123 9.40507 6.87523 9.10626C6.99904 8.80726 6.93043 8.46326 6.70163 8.23445C6.47283 8.00565 6.12883 7.93705 5.82983 8.06085C5.53102 8.18485 5.33602 8.47646 5.33602 8.80006C5.33602 8.90506 5.35662 9.00906 5.39682 9.10626ZM9.97886 11.0267C10.0199 10.9867 10.0433 10.9321 10.0441 10.8749C10.0449 10.8175 10.0227 10.7623 9.98266 10.7213C9.94266 10.6803 9.88806 10.6569 9.83086 10.6561C9.77346 10.6553 9.71826 10.6775 9.67206 10.7121C9.55176 10.7984 9.42437 10.8743 9.29126 10.9391C9.15813 11.0039 9.01977 11.0574 8.87765 11.0989C8.73565 11.1403 8.59025 11.1697 8.44325 11.1867C8.29605 11.2037 8.14785 11.2081 8.00004 11.2001C7.85244 11.2067 7.70444 11.2007 7.55784 11.1823C7.4112 11.1641 7.2664 11.1333 7.12504 11.0903C6.98344 11.0475 6.84603 10.9927 6.71383 10.9267C6.58163 10.8607 6.45523 10.7835 6.33603 10.6961C6.29463 10.6621 6.24203 10.6447 6.18843 10.6473C6.13483 10.6499 6.08423 10.6725 6.04623 10.7103C6.00843 10.7483 5.98583 10.7989 5.98323 10.8525C5.98063 10.9061 5.99803 10.9587 6.03203 11.0001C6.17263 11.1061 6.32203 11.1997 6.47863 11.2801C6.63523 11.3605 6.79863 11.4271 6.96664 11.4795C7.13464 11.5319 7.30684 11.5697 7.48144 11.5927C7.65604 11.6155 7.83224 11.6233 8.00804 11.6161C8.18385 11.6233 8.36005 11.6155 8.53465 11.5927C8.88436 11.5467 9.22356 11.441 9.53746 11.2801C9.69406 11.1997 9.84346 11.1061 9.98406 11.0001L9.97886 11.0267ZM9.83206 9.66407C9.94046 9.66527 10.0481 9.64427 10.1483 9.60267C10.2485 9.56087 10.3391 9.49927 10.4147 9.42147C10.4903 9.34366 10.5491 9.25126 10.5879 9.14986C10.6267 9.04858 10.6445 8.94044 10.6401 8.83206C10.6401 8.50846 10.4451 8.21685 10.1463 8.09285C9.84726 7.96905 9.50326 8.03765 9.27446 8.26645C9.04565 8.49526 8.97705 8.83926 9.10085 9.13826C9.22486 9.43707 9.51646 9.63207 9.84006 9.63207L9.83206 9.66407Z" fill="#1B6392"/>
</g>
<defs>
<clipPath id="clip0_2507_3532">
<rect width="16" height="16" fill="white"/>
</clipPath>
</defs>
</svg>
