<svg xmlns="http://www.w3.org/2000/svg" width="72" height="72" viewBox="0 0 72 72" fill="none">
  <g clip-path="url(#clip0_2707_13967)">
    <path fill-rule="evenodd" clip-rule="evenodd" d="M62.965 38.6921C69.0781 35.7011 72.4497 32.2963 71.9516 29.4765C70.9032 23.5502 52.9411 22.5957 34.4043 25.8866C25.9212 27.3929 17.8081 29.6539 12.3156 31.8961C12.6073 31.8776 12.8113 31.8911 12.8113 31.8911C15.1854 31.9567 15.0403 33.4327 15.0403 33.4327L15.044 34.3344H13.1513V33.7224C13.1513 33.2881 12.6225 33.259 12.6225 33.259C12.2177 33.259 12.1231 33.5339 12.1231 33.5339C11.899 33.9534 12.2824 34.3156 12.2824 34.3156C12.4778 34.5331 13.4619 34.9887 13.4619 34.9887C13.7806 35.112 14.2943 35.4303 14.2943 35.4303C15.2571 36.0092 15.1698 37.1091 15.1698 37.1091V37.8334C15.0543 39.6286 12.579 39.5774 12.579 39.5774C9.98745 39.5774 10.044 37.8773 10.044 37.8773V36.9887H12.0604V37.6007C12.0604 38.1218 12.5639 38.1452 12.5639 38.1452C13.1141 38.1665 13.1608 37.6343 13.1608 37.6343C13.2357 37.1169 12.6655 36.7912 12.6655 36.7912C12.1616 36.5298 11.6597 36.2645 11.1599 35.9952C10.6966 35.6913 10.5086 35.416 10.5086 35.416C10.1755 34.9965 10.1976 34.3447 10.1976 34.3447V33.7801C10.1976 32.9985 10.4078 32.7744 10.4078 32.7744C10.4165 32.7575 10.4257 32.7409 10.4352 32.7244C3.66416 35.8535 -0.480899 39.4803 0.0443005 42.4623C1.10986 48.5115 18.0494 49.305 37.973 46.2366C47.1467 44.8241 55.1304 42.2235 61.1723 39.5303C61.1293 39.5323 61.0834 39.5323 61.0395 39.5323C61.0395 39.5323 58.5975 39.7298 58.5397 37.7613V33.9538C58.5397 33.9538 58.2357 31.8551 60.9715 31.8551C60.9715 31.8551 62.7528 31.7973 63.2231 32.8539C63.2231 32.8539 63.455 33.1365 63.3935 34.3049H61.4963V33.7064C61.4963 33.7064 61.493 33.223 61.001 33.223C61.001 33.223 60.4865 33.2447 60.4865 33.6499V37.5872C60.4865 37.5872 60.4648 38.1157 61.044 38.1157C61.044 38.1157 61.5193 38.105 61.5193 37.5491V36.4106H61.0014V35.3504H63.4386V37.5872C63.4386 37.5872 63.432 38.0575 63.237 38.3324C63.2378 38.3328 63.0404 38.6356 62.965 38.6921ZM56.0182 39.3304H53.7834L51.7904 34.9334H51.7064L51.8191 39.33H49.9436V32.1402H52.2472L54.1722 36.5016H54.2546L54.1194 32.1394H56.0182V39.3304ZM44.2668 37.5446C44.2668 38.1538 44.8452 38.1231 44.8452 38.1231C45.3958 38.1231 45.3675 37.5295 45.3675 37.5295V32.1091H47.3774V37.595C47.3774 39.5717 44.8747 39.5418 44.8747 39.5418C41.9935 39.5418 42.2045 37.5008 42.2045 37.5008V32.1087H44.2602L44.2668 37.5446ZM37.9504 34.3344V33.7224C37.9504 33.2877 37.4224 33.259 37.4224 33.259C37.0168 33.259 36.9221 33.5339 36.9221 33.5339C36.6981 33.9534 37.0823 34.3156 37.0823 34.3156C37.2777 34.5323 38.2618 34.9887 38.2618 34.9887C38.5801 35.1116 39.0938 35.4303 39.0938 35.4303C40.0566 36.0092 39.9701 37.1091 39.9701 37.1091V37.8334C39.8542 39.6286 37.3793 39.5778 37.3793 39.5778C34.7874 39.5778 34.8439 37.8773 34.8439 37.8773V36.9887H36.8607V37.6007C36.8607 38.1218 37.3642 38.1452 37.3642 38.1452C37.9148 38.1665 37.9603 37.6343 37.9603 37.6343C38.0365 37.1169 37.4658 36.7912 37.4658 36.7912C36.9619 36.5297 36.4601 36.2644 35.9602 35.9952C35.4965 35.6913 35.3089 35.416 35.3089 35.416C34.9762 34.996 34.9971 34.3443 34.9971 34.3443V33.7797C34.9971 32.9981 35.2073 32.774 35.2073 32.774C35.7431 31.7678 37.6104 31.8907 37.6104 31.8907C39.9844 31.9563 39.8394 33.4327 39.8394 33.4327L39.8435 34.3344H37.9504ZM28.0188 32.1382L28.6247 36.0735H28.7725L29.4063 32.1386H32.5366L32.739 39.3291H30.857L30.8123 33.9129H30.6824L29.7021 39.3279H27.7336L26.741 33.9112H26.5939L26.5714 39.3295H24.7L24.8581 32.1382H28.0188ZM20.6754 39.3214L19.938 33.747H19.7729L19.0351 39.3214H17.0207L18.2653 32.132H21.4456L22.691 39.3214H20.6754Z" fill="#9BC1D7"/>
  </g>
  <defs>
    <clipPath id="clip0_2707_13967">
      <rect width="72" height="72" fill="#9BC1D7"/>
    </clipPath>
  </defs>
</svg>