<svg xmlns="http://www.w3.org/2000/svg" width="21" height="20" viewBox="0 0 21 20" fill="none">
  <path d="M11.2528 14.8985L15.1903 17.3985C15.6981 17.7188 16.3231 17.2422 16.1747 16.6563L15.0341 12.1719C15.0032 12.0476 15.0081 11.9171 15.0482 11.7955C15.0883 11.6738 15.1619 11.566 15.2606 11.4844L18.7919 8.53908C19.2528 8.15627 19.0185 7.38283 18.4169 7.34377L13.8075 7.04689C13.6818 7.03958 13.5608 6.99578 13.4596 6.92086C13.3583 6.84594 13.281 6.74314 13.2372 6.62502L11.5185 2.29689C11.473 2.17182 11.3901 2.06377 11.2811 1.98742C11.172 1.91107 11.0422 1.87012 10.9091 1.87012C10.776 1.87012 10.6461 1.91107 10.5371 1.98742C10.4281 2.06377 10.3452 2.17182 10.2997 2.29689L8.58096 6.62502C8.53716 6.74314 8.45989 6.84594 8.35861 6.92086C8.25733 6.99578 8.13642 7.03958 8.01065 7.04689L3.40127 7.34377C2.79971 7.38283 2.56533 8.15627 3.02627 8.53908L6.55752 11.4844C6.65622 11.566 6.72986 11.6738 6.76994 11.7955C6.81002 11.9171 6.81493 12.0476 6.78408 12.1719L5.7294 16.3281C5.54971 17.0313 6.29971 17.6016 6.90127 17.2188L10.5653 14.8985C10.6681 14.8331 10.7873 14.7984 10.9091 14.7984C11.0308 14.7984 11.1501 14.8331 11.2528 14.8985Z" fill="#EBC80C"/>
</svg>