<svg xmlns="http://www.w3.org/2000/svg" width="72" height="72" viewBox="0 0 72 72" fill="none">
  <path fill-rule="evenodd" clip-rule="evenodd" d="M6.44413 41.2452H3.66657V33.2835H0.45459V30.8936H9.82719V33.2835H6.44413V41.2452ZM11.1413 33.6252C11.5604 31.1887 13.7328 30.8316 15.8126 30.8316C19.3821 30.8316 20.639 31.7161 20.639 35.4563C20.639 39.2894 20.546 41.3226 15.8903 41.3226C14.0436 41.3226 11.8398 41.1832 11.219 39.0571C11.0173 38.3586 11.0016 37.6295 11.0016 36.9V36.1391C11.0016 35.3166 11.0016 34.4477 11.1413 33.6252ZM13.8415 36.7132C13.8415 38.1722 13.8725 38.948 15.5952 38.948C17.4886 38.948 17.7834 38.4822 17.7834 36.7132C17.7834 36.2168 17.7991 35.7047 17.7991 35.2079C17.7991 33.8266 17.5817 33.2061 16.092 33.2061C13.9196 33.2061 13.8882 33.4235 13.8419 36.0924V36.7132H13.8415ZM28.7539 34.1217C28.7539 33.0661 28.3811 32.9267 27.3883 32.9267H27.1089C26.3794 32.9267 25.6036 32.9577 25.6036 33.8733C25.6036 34.5098 25.79 34.8045 26.4571 34.8512C28.8622 35.0529 31.7026 34.5718 31.7026 37.9085C31.7026 38.7934 31.7026 39.9106 30.9731 40.5314C30.1192 41.2452 28.9399 41.3072 27.8537 41.3072H27.1709C24.3153 41.3072 22.8253 41.1832 22.8253 37.8928H25.4635C25.4635 38.6686 25.6499 39.1344 26.5187 39.1344H27.7136C28.4121 39.1344 28.9706 39.041 28.9706 38.1098C28.9706 37.1943 28.4275 37.1943 27.6513 37.148C24.6563 36.9463 22.8406 37.2253 22.8406 33.7802C22.8406 31.9798 23.5544 31.0333 25.4011 30.8936C26.0062 30.8469 26.6114 30.8159 27.2168 30.8159C29.6224 30.8159 31.4071 30.8626 31.4071 33.7959C31.4071 33.9046 31.3914 34.0133 31.3914 34.122H28.7539V34.1217ZM43.0261 41.2452H40.2478V37.179H36.6473V41.2452H33.8694V30.8936H36.6473V34.8045H40.2478V30.8936H43.0261V41.2452ZM48.4501 41.2452H45.6726V30.8936H48.4501V41.2452ZM51.1145 30.8936H56.7481C58.6258 30.8936 59.8364 31.4057 59.8364 33.5319C59.8364 34.7268 59.7277 35.689 58.2228 35.9374V36.03C59.6198 36.1544 60.0071 36.8992 60.0071 38.2648C60.0071 40.5927 59.2317 41.2449 56.7948 41.2449H51.1145V30.8936ZM55.6619 35.0372C56.4227 35.0062 57.0895 35.0996 57.0895 34.1527C57.0895 33.4078 56.8881 33.1748 56.1433 33.1748H53.8928V35.0372H55.6619ZM55.7399 38.9637C56.6088 38.9637 57.2449 38.948 57.2449 37.9395C57.2449 36.9773 56.7948 36.9463 55.9259 36.9463H53.8928V38.9637H55.7399ZM68.571 41.2452H71.3957L68.2446 30.8936H64.0394L60.935 41.2452H63.822L64.4136 39.1658H67.9708L68.571 41.2452ZM64.984 37.1637L66.1812 32.9577L67.3944 37.1637H64.984Z" fill="#9BC1D7"/>
</svg>