<svg width="16" height="16" viewBox="0 0 16 16" fill="none" xmlns="http://www.w3.org/2000/svg">
<path d="M5.03184 14.5024C11.0699 14.5024 14.3718 9.49713 14.3718 5.15672C14.3718 5.01457 14.3689 4.87308 14.3625 4.73216C15.005 4.26699 15.5595 3.69102 16 3.03127C15.4118 3.29293 14.7789 3.46904 14.1149 3.54844C14.7926 3.1418 15.3129 2.4985 15.5584 1.73168C14.914 2.11418 14.2091 2.38382 13.4739 2.52898C12.8749 1.89052 12.0221 1.4912 11.0778 1.4912C9.26494 1.4912 7.79489 2.96218 7.79489 4.77539C7.79489 5.03318 7.82374 5.28384 7.88006 5.52435C5.15177 5.38698 2.73252 4.07994 1.11343 2.09252C0.821818 2.59379 0.668434 3.16349 0.668943 3.74344C0.668943 4.88303 1.24846 5.88902 2.12976 6.47758C1.60846 6.46165 1.0986 6.32076 0.643057 6.06675C0.642569 6.08055 0.642569 6.09398 0.642569 6.10872C0.642569 7.69943 1.77408 9.02758 3.27613 9.32853C2.99402 9.40541 2.70292 9.44428 2.41054 9.44411C2.19938 9.44411 1.99359 9.42332 1.79359 9.3849C2.21151 10.69 3.42335 11.6397 4.86013 11.6663C3.73659 12.5474 2.32127 13.0722 0.783024 13.0722C0.521349 13.0725 0.259888 13.0573 0 13.0267C1.45281 13.9585 3.17789 14.5022 5.032 14.5022" fill="white"/>
</svg>
