<svg xmlns="http://www.w3.org/2000/svg" width="21" height="20" viewBox="0 0 21 20" fill="none">
  <path d="M7.25 16.875C7.25 17.1511 7.02614 17.375 6.75 17.375C6.47386 17.375 6.25 17.1511 6.25 16.875C6.25 16.5989 6.47386 16.375 6.75 16.375C7.02614 16.375 7.25 16.5989 7.25 16.875Z" fill="black" stroke="black" stroke-width="1.5"/>
  <path d="M14.875 18.125C15.5654 18.125 16.125 17.5654 16.125 16.875C16.125 16.1846 15.5654 15.625 14.875 15.625C14.1846 15.625 13.625 16.1846 13.625 16.875C13.625 17.5654 14.1846 18.125 14.875 18.125Z" fill="black"/>
  <path d="M3.80469 5.625H17.8203L15.7578 12.8438C15.6842 13.1057 15.5266 13.3363 15.3093 13.5C15.0919 13.6638 14.8268 13.7516 14.5547 13.75H7.07031C6.79819 13.7516 6.53308 13.6638 6.31572 13.5C6.09836 13.3363 5.94078 13.1057 5.86719 12.8438L3.03906 2.95313C3.00169 2.82246 2.92275 2.70754 2.8142 2.62578C2.70565 2.54401 2.5734 2.49986 2.4375 2.5H1.125" stroke="black" stroke-width="1.5" stroke-linecap="round" stroke-linejoin="round"/>
</svg>