<svg width="16" height="16" viewBox="0 0 16 16" fill="none" xmlns="http://www.w3.org/2000/svg">
<path d="M8.35392 13.5023L5.07659 13.4424C4.01547 13.4215 2.9517 13.4632 1.91138 13.2469C0.328813 12.9237 0.216699 11.339 0.0993827 10.0098C-0.062267 8.14102 0.000312411 6.23835 0.305366 4.38519C0.477579 3.34538 1.15531 2.72491 2.20339 2.6574C5.74144 2.41236 9.30301 2.4414 12.8332 2.55572C13.2061 2.5662 13.5814 2.62348 13.9491 2.68867C15.7638 3.00667 15.808 4.80246 15.9257 6.31418C16.043 7.84151 15.9935 9.37667 15.7692 10.8936C15.5893 12.1496 15.2452 13.2028 13.7926 13.3045C11.9727 13.4374 10.1946 13.5445 8.36952 13.5104C8.3696 13.5023 8.35912 13.5023 8.35392 13.5023ZM6.42717 10.3226C7.79863 9.53539 9.14392 8.76132 10.5075 7.97942C9.13352 7.19224 7.79079 6.41818 6.42717 5.63628V10.3226Z" fill="white"/>
</svg>
